<svg width="33" height="35" viewBox="0 0 33 35" fill="none" xmlns="http://www.w3.org/2000/svg">
<path d="M28.625 25.625L24.25 30L22.375 28.125M31.125 27.5C31.125 30.6066 28.6066 33.125 25.5 33.125C22.3934 33.125 19.875 30.6066 19.875 27.5C19.875 24.3934 22.3934 21.875 25.5 21.875C28.6066 21.875 31.125 24.3934 31.125 27.5Z" stroke="#21917C" stroke-width="1.5" stroke-linecap="round" stroke-linejoin="round"/>
<path d="M13.2122 0.767138C13.308 1.45207 13.2806 1.56166 13.0615 1.63015C11.2806 2.23289 9.96558 3.28769 9.28065 4.68495L8.84229 5.57536V7.84933V10.1096L8.44503 10.4658C8.08887 10.7808 8.04777 10.9041 8.06147 11.5617C8.07517 12.1507 8.21216 12.5754 8.7601 13.6712C9.58202 15.3151 11.4724 17.8493 12.3902 18.548C14.4998 20.1507 17.3491 19.6849 19.1026 17.4658C20.0889 16.2329 22.1711 12.6438 22.3354 11.9315C22.4861 11.1918 22.3628 10.726 21.9382 10.4247C21.6642 10.2329 21.6505 10.1096 21.6779 8.04111C21.719 5.65755 21.582 5.05481 20.7464 3.84933C19.6231 2.24659 16.1574 0.315083 13.9519 0.0822048L13.1163 1.33514e-05L13.2122 0.767138ZM15.7738 8.06851C17.1848 8.42467 18.1711 8.58905 19.2259 8.63015C20.1848 8.68495 20.6916 8.75344 20.6916 8.86303C20.6779 8.94522 20.5957 9.38358 20.4861 9.83563C20.1985 10.9863 20.1985 10.9863 20.9382 11.0274C21.5272 11.0685 21.582 11.0959 21.6231 11.4384C21.6779 11.8904 21.4176 12.4384 20.13 14.548C18.3354 17.5206 17.4861 18.3562 15.9382 18.6712C14.5683 18.9589 13.3628 18.5617 12.3217 17.4795C11.6231 16.7534 9.67791 13.9178 9.11627 12.8219C8.51353 11.6165 8.70531 10.8219 9.60942 10.8219C9.97928 10.8219 10.0067 10.7945 9.99298 10.2603C9.99298 9.94522 9.93818 9.34248 9.88339 8.90412C9.7738 8.01371 9.8149 7.95892 10.7875 7.72604C12.0204 7.43837 13.7053 7.54796 15.7738 8.06851Z" fill="#3062C8"/>
<path d="M10.2807 19.904C9.76012 20.3149 8.69163 20.6848 6.11628 21.3286C2.60944 22.219 1.37656 22.9451 0.540942 24.6437C0.0340929 25.6711 -0.157688 27.2601 0.143682 27.9862C0.486148 28.8218 0.266969 28.8081 9.54094 28.8081C17.5272 28.8081 17.9793 28.7944 17.8834 28.5615C17.4451 27.4793 17.3355 26.0958 17.582 24.8903C17.8971 23.4108 18.5135 22.3149 19.6642 21.1917L20.6642 20.219L20.1711 19.9588C19.8834 19.8218 19.6368 19.6848 19.5957 19.6711C19.5546 19.6437 19.4177 19.904 19.2807 20.2327C18.9245 21.0821 17.7875 22.1232 16.7875 22.493C14.6231 23.3149 11.9519 22.2327 10.993 20.1506C10.8697 19.8766 10.7327 19.63 10.6916 19.63C10.6505 19.63 10.4724 19.7533 10.2807 19.904Z" fill="#3062C8"/>
</svg>
